<?xml version="1.0" encoding="UTF-8"?>
<!DOCTYPE svg PUBLIC "-//W3C//DTD SVG 1.1//EN" "http://www.w3.org/Graphics/SVG/1.1/DTD/svg11.dtd">
<!-- Creator: CorelDRAW 2021 (64-Bit) -->
<svg xmlns="http://www.w3.org/2000/svg" xml:space="preserve" width="14.8062mm" height="17.3954mm" version="1.1" style="shape-rendering:geometricPrecision; text-rendering:geometricPrecision; image-rendering:optimizeQuality; fill-rule:evenodd; clip-rule:evenodd"
viewBox="0 0 150.15 176.41"
 xmlns:xlink="http://www.w3.org/1999/xlink"
 xmlns:xodm="http://www.corel.com/coreldraw/odm/2003">
 <defs>
  <style type="text/css">
   <![CDATA[
    .fil1 {fill:#060606}
    .fil3 {fill:#404040}
    .fil2 {fill:#5F5F5F}
    .fil4 {fill:#7B7B7B}
    .fil6 {fill:#8C8C8C}
    .fil7 {fill:#A8A8A8}
    .fil8 {fill:#C4C4C4}
    .fil5 {fill:#DBDBDB}
    .fil0 {fill:#FEFEFE}
   ]]>
  </style>
 </defs>
 <g id="Capa_x0020_1">
  <metadata id="CorelCorpID_0Corel-Layer"/>
  <path class="fil0" d="M64.26 104.45l0.35 -0.46c1.75,-1.46 2.82,-1.75 5.2,-1.52 1.51,0.15 3.25,1.29 3.75,2.75l0.29 0.31 -0.08 0.23c0.46,0.6 0.41,3.15 0.21,3.91 -0.22,0.83 -1.06,2 -1.75,2.51 -2.26,1.69 -4.2,1.27 -6.62,0.32l-0.51 -0.16 -0.08 -0.33c-1.97,-1.93 -2.41,-5.3 -0.75,-7.54zm24.44 -7.53l0.41 0.36 0.36 0.32 0.45 0.71c0.43,1.34 0.69,3.04 -0.28,4.21l-0.35 0.47c-2.37,2.45 -6.63,1.33 -6.87,-2.06 -0.12,-1.75 0.18,-3 1.75,-3.97 1.76,-1.09 2.85,-0.68 4.52,-0.03zm-38.29 3.16c-1.13,-1.08 -1.36,-3.32 -0.21,-4.46l-0.1 -0.15 0.4 -0.54 0.54 -0.37c0.95,-1.74 6.96,-1.55 6.21,3.75 -0.61,4.27 -6.14,3.87 -6.84,1.77zm12.97 -33.75c-0.24,0.1 -0.17,0.01 -0.41,0.16 -1.76,0.49 -5.08,3.02 -6.67,4.14l-0.43 0.37 -1.09 0.84c-0.3,0.71 -0.2,0.65 -0.9,0.96 -0.51,0.82 -1.56,1.81 -2.23,2.73 -0.67,0.93 -1.22,2.04 -1.85,2.9l-0.39 0.96 -1.25 2.45 0.11 0.2 -0.27 0.21 -1.38 4.23 -0.41 1.36c-1.18,2.23 -2.33,13.55 -2.72,17.09 -0.49,4.53 -0.51,13.11 -0.96,18.77 -0.51,6.39 -2.6,21.7 -2.08,27.21 0.19,2.01 1.27,5.62 2.8,6.98l0.48 0.6c2.39,1.51 2.95,1.62 5.81,1.02l0.63 -0.39c1.87,-1.63 2,-2.47 2.49,-4.93 0.29,-1.43 0.1,-5.59 2.31,-5.5 3.25,0.14 0.52,7.81 3.94,11.65l0.37 0.46 1.57 1.35 0.57 0.37 0.67 0.38c1.49,0.64 3.21,1.03 4.85,0.54 1.29,-0.39 2.59,-1.7 2.88,-2.99l0.47 -0.92 0.85 -6.99c0.42,-3.96 3.46,-3.06 3.87,-1.42 1.08,4.31 -1.06,8.73 2.67,12.12l0.39 0.39 1.16 0.52 0.86 0.34c2.14,0.84 4.5,0.55 6.16,-1.01l0.42 -0.45 0.7 -1.3 0.45 -0.63c0.06,-1.47 0.68,-1.77 0.6,-3.56 -0.06,-1.4 -0.08,-2.89 -0.09,-4.29 -0.04,-5.56 3.1,-4.32 3.64,-3.36 1.88,3.35 -1.18,10.29 4.81,12.08l3.88 -0.11c2.34,-0.42 3.95,-2.89 4.68,-4.95 0.56,-1.57 1.8,-6.47 1.42,-7.89 -0.68,-0.1 -1.82,0.47 -2.62,0.57 -3.39,0.42 -5.14,0.08 -8.15,-1.53l-0.43 -0.39 -1.26 -1.12 -0.55 -0.66c-2.02,-2.2 -2.62,-6.2 -2.73,-9.1 -0.05,-1.29 -0.23,-2.54 -0.26,-3.76 -0.06,-2.63 -0.12,-5.24 -0.16,-7.87 -0.03,-1.95 -0.5,-5.78 0.42,-7.38 0.25,-0.56 0.19,-0.45 0.81,-0.64 3.13,-0.63 2.68,2.45 3.06,4.45 0.29,1.53 0.11,5.67 0.16,7.51 0.1,3.88 -0.42,10.05 1.76,13.22l0.38 0.57 0.35 0.52 0.77 0.63 0.49 0.59c1.6,0.23 1.43,0.9 3.94,0.84 4.05,-0.1 6.3,-3.38 7.14,-7.09 0.62,-2.73 -0.01,-23.77 -0.23,-27.85 -0.05,-0.91 -0.33,-1.2 -0.35,-2.18l-0.14 -6.8c-0.22,-7.73 0.05,-9.49 -1.79,-16.93l-0.33 -0.68c-0.23,-2.16 -2.26,-5.37 -3.26,-7.31l-0.3 -0.53 -0.35 -0.5 -0.43 -0.39 -0.64 -0.86 -0.42 -0.51 -0.97 -1.26 -0.46 -0.19 -0.19 -0.48c-0.42,-0.25 -0.96,-0.85 -1.34,-1.19 -0.44,-0.4 -0.98,-0.73 -1.46,-1.09 -1.19,-0.9 -1.77,-1.32 -3.1,-2l-0.62 -0.39 -3.83 -1.61c-0.8,-0.08 -0.72,0 -1.3,-0.53 -0.6,0.03 -4.73,-1.04 -5.92,-1.19 -2.54,-0.32 -4.54,-0.28 -7.1,-0.2 -2.63,0.08 -9.95,1.01 -11.98,2.64z"/>
  <path class="fil0" d="M140.12 47.96l0.1 0.24 -0.3 0.26c-1.43,3.81 -5.3,6.82 -8.88,8.41 -5.23,2.32 -8.47,1.75 -9.55,3.33 -2.89,4.24 -5.2,9.16 -10.81,10.28 -2.18,0.43 -4.83,-0.36 -6.06,-2.33 -1.56,-2.49 -0.38,-5.29 -0.95,-7.69 -1.56,-0.53 -12.79,0.53 -15.75,-0.07 -0.36,0.02 -0.28,-0.08 -0.28,0.25 1.19,0.09 4.45,1.52 5.75,2.04l0.68 0.38c3.23,1.33 6.42,3.86 8.95,6.18 2.44,2.24 4.91,5.64 6.34,8.69l0.26 0.37 -0.11 0.2c1.97,2.7 3.43,11.76 3.69,15.22 0.11,1.54 0.17,3.06 0.18,4.6 0.01,1.61 0.21,2.98 0.26,4.47 0.18,5.87 0.65,12.53 0.77,18.25 0.06,3.1 0.08,6.2 0.17,9.3 0.12,4.2 0.03,12.22 -3.25,15.29l-0.39 3.32c0.09,3.42 -0.98,9.56 -2.94,12.59 -1.66,2.58 -1.48,1.78 -2.18,2.75l-0.58 0.42c-1.58,0.96 -3.35,2.22 -5.29,2.13l-1.5 0.46 -0.41 -0.33c-3.01,-0.1 -2.9,-0.57 -5.31,-1.74l-0.52 -0.46 0.01 -0.07 -0.47 -0.41c-1.34,0.38 -2.15,4.73 -9.23,4.95 -2.49,0.08 -6.22,-1.33 -7.86,-2.78 -0.58,-0.52 -1.1,-1.22 -1.81,-1.52 -0.68,-0.03 -6.91,6.86 -14.53,1.04 -0.79,-0.61 -2.81,-2.55 -3.18,-3.4l-0.39 -0.15 -0.11 -0.5c-2.22,0.51 -4.71,3.6 -10.12,1.78 -2.4,-0.81 -5.38,-3.97 -6.55,-6.17 -1.84,-3.48 -1.86,-7.08 -1.88,-10.92 -0.01,-1.93 0.33,-3.99 0.53,-5.91 0.17,-1.66 0.6,-4 0.63,-5.55 0.01,-1.17 0.37,-5.7 0.8,-6.58 -0.14,-2.06 0.74,-6.17 0.22,-7.81 -0.87,-0.26 -12.42,-0.31 -13.24,-0.01 -0.62,1.95 -1.08,7.67 -7.04,6.72 -5.53,-0.89 -4.83,-6.15 -5.38,-8.23l-0.66 -0.18 -0.63 -0.37c-4.2,-2.04 -4.89,-5.87 -4.97,-10.16 -0.04,-2.25 0.33,-4.29 1.29,-6.35 0.91,-1.94 1.94,-2.79 3.85,-3.7 5.45,-2.6 26.56,-0.79 28.84,-1.49 0.8,-2.61 0.42,-8.54 3.65,-16.27 2.74,-6.56 7.69,-12.21 13.65,-15.87 12.79,-7.87 21.18,-4.51 24.05,-5.35 -0.49,-0.58 -2.36,-0.59 -3.32,-1.01 -0.99,-0.43 -2.04,-0.75 -2.96,-1.33 -4.5,-2.85 -2.41,-1.83 -4.76,-3.77l-0.45 -0.54c-4.73,-6.03 -4.64,-16.11 -4.13,-23.4 0.47,-6.67 2.74,-15.26 9.2,-18.44l0.69 -0.35c1.92,-1.1 6.85,-2.54 9.08,-2.47l0.18 -0.37 2.13 -0.02 11.46 -0.27c8.12,0 25.72,-0.95 31.98,2.41l0.64 0.34c5.52,2.58 8.69,9.75 9.95,15.42 0.82,3.7 1.28,8.03 0.89,11.81 -0.3,2.89 -0.68,7.95 -2.13,10.46zm-112.65 82.54l0.17 -0.42 0.16 0.28c-0.07,7.6 0.74,15.53 0.8,23.06 0.02,3.09 0.11,3.92 1.13,6.8 1.28,3.62 4.03,6.49 7.2,8.72 3.7,2.6 7.54,3.99 12.13,3.88 2.98,-0.07 3.35,-1.55 6.51,0.37 1.07,0.65 1.16,0.96 2.48,1.46 0.99,0.37 1.99,0.7 3.03,0.9 2.37,0.46 4.83,0.52 7.04,-0.56 1.23,-0.6 1.24,-1.06 2.76,-1.17 1.1,-0.08 2.75,-0.08 3.83,0.13 1.57,0.3 5.81,3.95 12.97,1.8 2,-0.6 4.02,-2.01 6.1,-1.95 1.05,0.03 1.71,0.76 2.84,1.11 5.39,1.65 10.82,-0.12 14.63,-4.19 3.86,-4.13 5.79,-12.17 6.08,-17.83 0.08,-1.49 1.88,-3.81 2.64,-5.29 2.57,-4.97 2.4,-8.25 2.26,-13.67 -0.14,-5.23 -0.22,-10.51 -0.28,-15.74 -0.06,-5.05 -0,-10.37 -0.38,-15.39 -0.38,-5.06 -0.74,-17.65 -2.09,-21.96 -0.51,-1.63 -1.16,-4.24 -2.9,-4.92l-0.52 -0.3 0.56 -0.27c3.23,-0.84 5.86,-3.6 7.05,-6.66 0.82,-2.11 2.22,-1.55 4.4,-2.42 1.59,-0.64 3.15,-1.37 4.71,-2.09 2.95,-1.37 6.09,-2.97 8.7,-4.89 6.88,-5.05 9.91,-22.89 8.19,-31.89 -1.19,-6.24 -3.62,-14.38 -8.28,-18.9 -9.66,-9.39 -32.98,-8.87 -45.59,-8.09 -7.39,0.46 -16.64,1.41 -23.68,3.66 -8.01,2.57 -10.84,5.9 -13.2,13.96 -1.16,3.95 -1.64,8.22 -1.53,12.33l1 12.68c1.74,14.89 6.53,10.08 0.84,13.43 -6.83,4.02 -14.12,8.99 -18.41,15.74 -2.11,3.32 -4.75,10.64 -5.68,14.72 -1.15,5.04 2.27,3.86 -16.4,4.24 -5.17,0.11 -6.71,-0.64 -11.07,2.46 -6.31,4.49 -8.5,11.9 -7.4,19.36 1.58,10.76 5.57,9.99 6.93,13.61 0.59,1.57 1.35,3.08 2.39,4.41 2.5,3.21 5.31,4.09 9.27,4.24 4.06,0.15 6.48,-1.42 8.6,-4.73z"/>
  <path class="fil1" d="M91 117.76c-0.92,1.61 -0.45,5.43 -0.42,7.38 0.04,2.63 0.1,5.24 0.16,7.87 0.03,1.22 0.22,2.47 0.26,3.76 0.1,2.9 0.7,6.91 2.73,9.1l0.55 0.66 1.26 1.12 0.43 0.39c3.01,1.6 4.76,1.95 8.15,1.53 0.8,-0.1 1.94,-0.67 2.62,-0.57 0.38,1.42 -0.86,6.32 -1.42,7.89 -0.74,2.06 -2.35,4.52 -4.68,4.95 -0.73,0.54 -3.1,0.51 -3.88,0.11 -5.99,-1.79 -2.93,-8.73 -4.81,-12.08 -0.54,-0.96 -3.68,-2.2 -3.64,3.36 0.01,1.41 0.03,2.89 0.09,4.29 0.08,1.79 -0.54,2.09 -0.6,3.56l-0.45 0.63 -0.7 1.3 -0.42 0.45c-1.66,1.56 -4.02,1.86 -6.16,1.01l-0.57 -0.03 -0.3 -0.32 -1.16 -0.52 -0.39 -0.39c-3.73,-3.4 -1.59,-7.81 -2.67,-12.12 -0.41,-1.64 -3.45,-2.54 -3.87,1.42l-0.85 6.99c-0.15,0.68 0.02,0.49 -0.47,0.92 -0.28,1.29 -1.59,2.6 -2.88,2.99 -1.64,0.5 -3.36,0.1 -4.85,-0.54l-0.67 -0.38 -0.57 -0.37 -1.57 -1.35 -0.37 -0.46c-3.42,-3.84 -0.68,-11.51 -3.94,-11.65 -2.21,-0.09 -2.02,4.06 -2.31,5.5 -0.49,2.46 -0.62,3.3 -2.49,4.93l-0.63 0.39c-2.86,0.6 -3.42,0.49 -5.81,-1.02l-0.48 -0.6c-1.53,-1.36 -2.61,-4.97 -2.8,-6.98 -0.51,-5.51 1.58,-20.82 2.08,-27.21 0.45,-5.66 0.47,-14.23 0.96,-18.77 0.39,-3.54 1.54,-14.86 2.72,-17.09 0.03,-0.74 0.02,-0.73 0.41,-1.36l1.38 -4.23 0.16 -0.41 1.25 -2.45 0.39 -0.96c0.63,-0.86 1.18,-1.97 1.85,-2.9 0.66,-0.92 1.72,-1.91 2.23,-2.73l0.9 -0.96 1.09 -0.84 0.43 -0.37c1.59,-1.12 4.91,-3.65 6.67,-4.14l0.23 -0.3 0.18 0.13c2.03,-1.63 9.35,-2.56 11.98,-2.64 2.56,-0.08 4.56,-0.12 7.1,0.2 1.2,0.15 5.32,1.22 5.92,1.19l1.3 0.53 3.83 1.61 0.62 0.39c1.33,0.68 1.91,1.1 3.1,2 0.48,0.36 1.02,0.7 1.46,1.09 0.38,0.34 0.91,0.95 1.34,1.19l0.64 0.67 0.97 1.26 0.42 0.51 0.64 0.86 0.43 0.39 0.35 0.5 0.3 0.53c1,1.94 3.03,5.15 3.26,7.31l0.33 0.68c1.84,7.43 1.57,9.19 1.79,16.93l0.14 6.8c0.02,0.99 0.3,1.28 0.35,2.18 0.23,4.07 0.85,25.12 0.23,27.85 -0.84,3.71 -3.09,6.98 -7.14,7.09 -2.51,0.06 -2.34,-0.61 -3.94,-0.84l-0.49 -0.59 -0.77 -0.63 -0.35 -0.52 -0.38 -0.57c-2.18,-3.17 -1.66,-9.34 -1.76,-13.22 -0.05,-1.84 0.13,-5.99 -0.16,-7.51 -0.38,-2 0.07,-5.08 -3.06,-4.45l-0.81 0.64zm-76.49 -1.85l-0.55 -0.43c-1.12,-0.46 -2.33,-1.84 -2.6,-3.04l-0.35 -0.19 -0.09 -0.55c-0.69,-2.52 -0.71,-6.34 1,-8.45 1.88,-2.32 4.99,-2.44 7.79,-2.47 1.67,-0.02 3.11,0.15 4.81,0.11 1.62,-0.04 3.29,-0.15 4.89,0.06 2.11,0.28 8.68,-0.38 10.05,0.12 0.29,1.03 0.06,2.58 -0.07,3.66 -0.18,1.45 -0.13,2.52 -0.17,3.96 -0.03,1.16 -0.29,2.61 -0.35,3.76 -0.05,1.08 0.16,2.65 -0.15,3.64 -1.34,1.05 -13.55,-0.21 -16.36,0.43 -1.52,1.23 -0.88,5.75 -2.7,7.14 -1.57,0.27 -2.99,-0.47 -3.23,-2.09 -0.22,-1.48 0.18,-3.87 -0.17,-5.13 -0.48,-0.38 -1.12,-0.43 -1.74,-0.54zm56.23 -93.03l0.15 -0.48 0.18 -0.08 0.33 -0.81c0.15,-0.74 0.81,-2.25 1.44,-2.6l0.34 -0.58c0.42,-0.98 2.12,-2.58 3.19,-2.84l0.41 -0.38 0.73 -0.3 0.11 -0.29 0.47 -0.07c3.64,-2.42 19.71,-2.86 24.63,-2.93 4.52,-0.06 22.36,-0.15 25.5,2.06l0.79 0.24c1.52,0.62 3.19,1.9 4.28,3.1l0.54 0.65 0.88 1.45 0.42 0.61c2.32,4.53 3.86,16.17 2.88,21.13 -0.53,2.66 -1.91,6.45 -3.58,8.56 -1.43,1.81 -5.07,4.75 -7.39,4.97 -0.37,0.44 -0.67,0.46 -1.24,0.57l-5.19 0.91c-1.43,0.1 -1.62,1.05 -2.87,3.28l-0.39 0.46 -0.69 1.11 -0.29 0.71c-1.03,0.83 -1.59,2.39 -2.97,3.25l-0.08 0.29 -0.43 0.17 -0.47 0.81 -0.65 0.3 -1.3 0.83c-0.64,0.31 -0.9,0.24 -1.6,0.16l-0.27 -0.29 -0.48 -0.34 -0.34 -0.25 -0.07 -0.54c-1.06,-1.98 1,-7.84 0.49,-9.34 -1.25,-0.31 -5.67,0.03 -7.13,0.18 -0.61,0.06 -0.9,-0.13 -1.23,-0.08 -1.87,0.31 -3.84,0.04 -5.7,0.06 -5.46,0.07 -8.26,-0.03 -13.52,-1.51l-0.85 -0.35 -0.99 -0.34 -0.95 -0.4c-2.04,-1.17 -5.42,-3.52 -5.92,-5.98l-0.35 -0.41 -0.13 -0.55c-0.45,-0.4 -0.34,-0.37 -0.52,-0.97 -0.08,-0.91 -0.42,-1.53 -0.56,-2.42 -0.62,-3.96 -0.49,-4.88 -0.55,-8.97 -0.03,-1.74 0.06,-7.35 0.43,-9.05 0.19,-0.87 0.5,-1.82 0.52,-2.7zm16.57 -15.08l-2.31 0.39c-2.23,-0.07 -7.16,1.37 -9.08,2.47l-0.69 0.35c-6.46,3.18 -8.74,11.77 -9.2,18.44 -0.51,7.29 -0.6,17.37 4.13,23.4l0.45 0.54c2.35,1.93 0.26,0.92 4.76,3.77 0.92,0.58 1.97,0.9 2.96,1.33 0.97,0.42 2.83,0.42 3.32,1.01 -2.88,0.84 -11.26,-2.51 -24.05,5.35 -5.95,3.66 -10.91,9.31 -13.65,15.87 -3.23,7.73 -2.85,13.66 -3.65,16.27 -2.28,0.7 -23.39,-1.1 -28.84,1.49 -1.91,0.91 -2.94,1.76 -3.85,3.7 -0.96,2.06 -1.33,4.1 -1.29,6.35 0.08,4.29 0.77,8.12 4.97,10.16l0.63 0.37 0.66 0.18c0.55,2.08 -0.15,7.35 5.38,8.23 5.96,0.96 6.42,-4.76 7.04,-6.72 0.82,-0.3 12.38,-0.25 13.24,0.01 0.53,1.64 -0.36,5.76 -0.22,7.81 0.06,1.29 -0.05,5.62 -0.8,6.58 -0.03,1.55 -0.46,3.9 -0.63,5.55 -0.19,1.91 -0.54,3.97 -0.53,5.91 0.02,3.84 0.04,7.44 1.88,10.92 1.17,2.2 4.15,5.36 6.55,6.17 5.41,1.82 7.91,-1.27 10.12,-1.78l0.51 0.65c0.37,0.85 2.39,2.79 3.18,3.4 7.61,5.82 13.84,-1.06 14.53,-1.04 0.71,0.31 1.22,1.01 1.81,1.52 1.64,1.45 5.37,2.85 7.86,2.78 7.08,-0.22 7.89,-4.57 9.23,-4.95l0.47 0.41 -0.01 0.07 0.52 0.46c2.41,1.17 2.3,1.64 5.31,1.74 0.99,0.14 0.98,-0.09 1.91,-0.13 1.94,0.09 3.72,-1.17 5.29,-2.13l0.58 -0.42c0.7,-0.97 0.52,-0.17 2.18,-2.75 1.96,-3.03 3.03,-9.17 2.94,-12.59 0,-1.09 -0.07,-2.32 0.39,-3.32 3.28,-3.06 3.37,-11.09 3.25,-15.29 -0.09,-3.1 -0.1,-6.2 -0.17,-9.3 -0.12,-5.72 -0.59,-12.38 -0.77,-18.25 -0.04,-1.49 -0.25,-2.86 -0.26,-4.47 -0.01,-1.54 -0.06,-3.06 -0.18,-4.6 -0.25,-3.46 -1.71,-12.52 -3.69,-15.22l-0.15 -0.57c-1.44,-3.04 -3.9,-6.44 -6.34,-8.69 -2.53,-2.32 -5.72,-4.85 -8.95,-6.18l-0.68 -0.38c-1.3,-0.52 -4.57,-1.95 -5.75,-2.04l-0.57 -0.17 0.85 -0.08c2.96,0.6 14.19,-0.46 15.75,0.07 0.57,2.4 -0.61,5.2 0.95,7.69 1.23,1.96 3.87,2.76 6.06,2.33 5.61,-1.12 7.92,-6.04 10.81,-10.28 1.08,-1.58 4.31,-1.01 9.55,-3.33 3.58,-1.59 7.46,-4.6 8.88,-8.41 0.2,-0.3 0.07,-0.14 0.2,-0.51 1.46,-2.51 1.84,-7.57 2.13,-10.46 0.39,-3.78 -0.07,-8.1 -0.89,-11.81 -1.26,-5.67 -4.43,-12.84 -9.95,-15.42l-0.64 -0.34c-6.26,-3.36 -23.86,-2.41 -31.98,-2.41l-11.46 0.27z"/>
  <path class="fil0" d="M97.21 34.54l0.34 -0.75c0.88,-1.58 1.93,-2.34 3.44,-3.28l0.35 -0.27 0.52 0.02c0.9,-0.63 3.28,-0.65 4.33,-0.35 1.02,0.29 2.08,1.1 2.81,1.85 2.29,2.39 2.03,4.28 1.93,7.42l-0.31 0.71 -0 0.08 -0.4 0.95c-1.37,2.51 -2.76,3.44 -5.68,3.53 -2.8,0.08 -4.36,-0.39 -6.23,-2.47l-0.41 -0.53c-1.24,-2.86 -1.52,-3.77 -0.67,-6.9zm22.31 -4.67l0.6 -0.41c1.98,-0.53 3.01,-0.58 4.96,0.16 0.71,0.27 1.4,0.59 2.04,1 0.51,0.33 1.1,1.06 1.5,1.21l0.34 0.54c0.75,2.56 1.08,3.01 0.8,5.85 -0.2,2.02 -1.09,3.2 -2.69,4.32 -2.03,1.43 -2.91,1.64 -5.4,1.56 -1.87,-0.06 -3.49,-0.54 -4.66,-2.04l-0.38 -0.47c-0.74,-1.3 -1.08,-1.41 -1.28,-3.07 -0.16,-1.32 -0.18,-2.76 0.21,-4.01 0.57,-1.78 2.23,-3.89 3.95,-4.65zm-27.38 4.42l0.23 0.51c0.6,2.61 0.82,4.2 -0.51,6.61 -0.16,0.48 -0.05,0.46 -0.55,0.66 -0.24,0.54 -0.72,0.88 -1.21,1.18l-0.41 0.44c-1.94,0.64 -3.54,1.72 -7.08,0.89 -3.19,-0.75 -2.61,-2.95 -2.89,-5.68 -0.24,-2.32 -1.04,-14.44 0.78,-15.69l0.58 -0.47c4.54,-0.56 2.24,5.09 2.85,7.69 1.18,0.45 3.11,-0.24 5.32,0.72 1.31,0.57 2.47,1.76 2.9,3.15zm-14.04 -19.84l-0.58 0.36 -0.73 0.3 -0.41 0.38c-1.07,0.26 -2.76,1.86 -3.19,2.84l-0.34 0.58c-0.64,0.35 -1.29,1.86 -1.44,2.6l-0.33 0.81 -0.18 0.08 0.11 0.23 -0.26 0.24c-0.02,0.88 -0.34,1.84 -0.52,2.7 -0.37,1.7 -0.46,7.32 -0.43,9.05 0.06,4.09 -0.08,5.01 0.55,8.97 0.14,0.89 0.48,1.51 0.56,2.42l0.52 0.97 0.13 0.55 0.35 0.41c0.5,2.46 3.88,4.81 5.92,5.98l0.95 0.4 0.99 0.34 0.85 0.35c5.26,1.48 8.06,1.58 13.52,1.51 1.86,-0.02 3.83,0.25 5.7,-0.06 0.33,-0.05 0.62,0.15 1.23,0.08 1.46,-0.15 5.88,-0.49 7.13,-0.18 0.51,1.5 -1.55,7.36 -0.49,9.34l0.4 0.79 0.48 0.34c0.75,0.26 1.09,0.17 1.87,0.13l1.3 -0.83 0.65 -0.3 0.47 -0.81 0.51 -0.46c1.39,-0.86 1.94,-2.42 2.97,-3.25l0.29 -0.71 0.69 -1.11 0.39 -0.46c1.25,-2.24 1.44,-3.18 2.87,-3.28l5.19 -0.91 1.24 -0.57c2.32,-0.22 5.97,-3.16 7.39,-4.97 1.66,-2.11 3.05,-5.9 3.58,-8.56 0.98,-4.96 -0.56,-16.6 -2.88,-21.13l-0.42 -0.61 -0.88 -1.45 -0.54 -0.65c-1.09,-1.2 -2.76,-2.48 -4.28,-3.1l-0.79 -0.24c-3.14,-2.21 -20.97,-2.12 -25.5,-2.06 -4.91,0.06 -20.99,0.51 -24.63,2.93z"/>
  <path class="fil0" d="M10.94 111.7l0.44 0.74c0.27,1.2 1.47,2.58 2.6,3.04l0.55 0.43c0.62,0.12 1.27,0.17 1.74,0.54 0.35,1.26 -0.05,3.65 0.17,5.13 0.24,1.62 1.67,2.35 3.23,2.09 1.83,-1.4 1.19,-5.91 2.7,-7.14 2.82,-0.64 15.03,0.62 16.36,-0.43 0.31,-0.99 0.1,-2.56 0.15,-3.64 0.05,-1.15 0.31,-2.6 0.35,-3.76 0.04,-1.44 -0.02,-2.51 0.17,-3.96 0.14,-1.09 0.36,-2.63 0.07,-3.66 -1.37,-0.5 -7.94,0.15 -10.05,-0.12 -1.61,-0.21 -3.27,-0.09 -4.89,-0.06 -1.71,0.04 -3.15,-0.13 -4.81,-0.11 -2.79,0.04 -5.91,0.15 -7.79,2.47 -1.71,2.11 -1.69,5.93 -1,8.45z"/>
  <path class="fil1" d="M88.46 39.3l-0.39 0.4c-0.94,0.95 -2.34,1.35 -3.64,0.9 -0.6,-0.89 -0.71,-4.62 -0.35,-5.61 1.18,-0.54 3.11,-0.46 3.98,0.55 0.97,1.13 1,2.44 0.4,3.76zm-7.97 -16.08c-1.82,1.25 -1.02,13.37 -0.78,15.69 0.28,2.73 -0.3,4.93 2.89,5.68 3.55,0.84 5.14,-0.25 7.08,-0.89l0.41 -0.44c0.49,-0.3 0.97,-0.64 1.21,-1.18l0.55 -0.66c1.34,-2.42 1.11,-4 0.51,-6.61l-0.23 -0.51c-0.43,-1.38 -1.59,-2.58 -2.9,-3.15 -2.21,-0.96 -4.15,-0.27 -5.32,-0.72 -0.61,-2.6 1.69,-8.25 -2.85,-7.69l-0.58 0.47z"/>
  <path class="fil1" d="M125.29 35.26l0.26 0.81 -0.08 2.34 -0.34 0.51c-1.37,1.07 -2.63,1.78 -4.39,0.79 -0.7,-0.4 -1.11,-1.02 -1.17,-1.84 -0.08,-1.03 0.35,-1.79 0.38,-2.35l0.27 -0.73c1.45,-1.62 1.95,-1.47 3.93,-1.05l0.41 0.43 0.73 1.1zm-5.16 -5.8l-0.6 0.41c-1.72,0.76 -3.38,2.86 -3.95,4.65 -0.4,1.26 -0.37,2.7 -0.21,4.01 0.19,1.66 0.54,1.77 1.28,3.07l0.38 0.47c1.17,1.51 2.79,1.99 4.66,2.04 2.5,0.08 3.37,-0.13 5.4,-1.56 1.6,-1.13 2.5,-2.31 2.69,-4.32 0.28,-2.85 -0.05,-3.29 -0.8,-5.85l-0.34 -0.54c-0.41,-0.15 -1,-0.88 -1.5,-1.21 -0.64,-0.41 -1.33,-0.73 -2.04,-1 -1.95,-0.74 -2.98,-0.69 -4.96,-0.16z"/>
  <path class="fil1" d="M106.3 34.74l0.35 0.69c0.37,1.72 0.68,3.66 -1.07,4.76 -1.35,0.85 -3.48,0.11 -4.32,-1.24 -1.32,-2.15 2.05,-7.83 5.03,-4.2zm-4.45 -4.49l-0.87 0.25c-1.51,0.94 -2.56,1.7 -3.44,3.28l-0.34 0.75c-0.85,3.13 -0.57,4.04 0.67,6.9l0.41 0.53c1.87,2.09 3.43,2.56 6.23,2.47 2.93,-0.09 4.31,-1.02 5.68,-3.53l0.4 -0.95 0 -0.08 0.31 -0.71c0.1,-3.14 0.36,-5.03 -1.93,-7.42 -0.72,-0.75 -1.79,-1.56 -2.81,-1.85 -1.05,-0.3 -3.43,-0.28 -4.33,0.35z"/>
  <path class="fil1" d="M64.61 103.98l-0.35 0.46c-1.66,2.25 -1.22,5.61 0.75,7.54l0.59 0.5c2.42,0.95 4.36,1.37 6.62,-0.32 0.69,-0.51 1.53,-1.68 1.75,-2.51 0.2,-0.76 0.26,-3.32 -0.21,-3.91 -0.14,-0.41 0,-0.22 -0.21,-0.54 -0.5,-1.46 -2.25,-2.6 -3.75,-2.75 -2.37,-0.23 -3.45,0.06 -5.2,1.52z"/>
  <path class="fil1" d="M89.31 102.97l0.35 -0.47c0.97,-1.17 0.71,-2.87 0.28,-4.21l-0.45 -0.71 -0.36 -0.32 -0.41 -0.36c-1.66,-0.65 -2.75,-1.06 -4.52,0.03 -1.58,0.97 -1.88,2.22 -1.75,3.97 0.24,3.39 4.5,4.52 6.87,2.06z"/>
  <path class="fil1" d="M51.04 94.55l-0.54 0.37 -0.4 0.54 0.1 0.15c-0.24,1.67 -0.24,2.83 0.21,4.46 0.7,2.1 6.23,2.5 6.84,-1.77 0.76,-5.3 -5.26,-5.5 -6.21,-3.75z"/>
  <path class="fil0" d="M106.66 35.43l-0.35 -0.69c-2.98,-3.62 -6.35,2.06 -5.03,4.2 0.83,1.36 2.97,2.09 4.32,1.24 1.75,-1.1 1.43,-3.04 1.07,-4.76z"/>
  <path class="fil0" d="M120.22 34.77l-0.27 0.73c-0.03,0.56 -0.46,1.31 -0.38,2.35 0.06,0.82 0.47,1.44 1.17,1.84 1.76,1 3.02,0.28 4.39,-0.79l0.34 -0.51 0.08 -2.34 -0.26 -0.81 -0.73 -1.1 -0.41 -0.43c-1.98,-0.42 -2.48,-0.57 -3.93,1.05z"/>
  <path class="fil0" d="M88.06 39.7l0.39 -0.4c0.6,-1.32 0.56,-2.63 -0.4,-3.76 -0.87,-1.02 -2.81,-1.09 -3.98,-0.55 -0.36,0.99 -0.25,4.73 0.35,5.61 1.3,0.46 2.7,0.05 3.64,-0.9z"/>
  <path class="fil2" d="M37.23 135.15c0.75,-0.97 0.85,-5.29 0.8,-6.58 -0.43,0.88 -0.79,5.41 -0.8,6.58z"/>
  <path class="fil3" d="M50.41 100.08c-0.44,-1.63 -0.44,-2.8 -0.21,-4.46 -1.15,1.15 -0.93,3.38 0.21,4.46z"/>
  <path class="fil4" d="M96.76 161.95c0.78,0.4 3.15,0.43 3.88,-0.11l-3.88 0.11z"/>
  <polygon class="fil2" points="85.01,8.18 87.32,7.8 85.19,7.81 "/>
  <path class="fil4" d="M110.93 148.95l0.39 -3.32c-0.46,1 -0.39,2.23 -0.39,3.32z"/>
  <path class="fil4" d="M110.45 66.98c-0.78,0.04 -1.12,0.13 -1.87,-0.13l0.27 0.29c0.7,0.07 0.96,0.14 1.6,-0.16z"/>
  <path class="fil4" d="M98.03 166.97l0.41 0.33 1.5 -0.46c-0.93,0.04 -0.91,0.26 -1.91,0.13z"/>
  <path class="fil3" d="M53.88 72.8c0.7,-0.31 0.6,-0.25 0.9,-0.96l-0.9 0.96z"/>
  <path class="fil2" d="M89.67 65.61l-1.3 -0.53c0.58,0.54 0.5,0.46 1.3,0.53z"/>
  <polygon class="fil5" points="116.58,75.9 116.62,75.33 116.06,75.6 "/>
  <path class="fil4" d="M125.8 54.87c0.57,-0.11 0.88,-0.13 1.24,-0.57l-1.24 0.57z"/>
  <path class="fil6" d="M46.21 87.84l0.41 -1.36c-0.39,0.63 -0.38,0.62 -0.41,1.36z"/>
  <path class="fil3" d="M91 117.76l0.81 -0.64c-0.61,0.19 -0.55,0.08 -0.81,0.64z"/>
  <polygon class="fil3" points="100.68,72.56 100.03,71.89 100.22,72.37 "/>
  <polygon class="fil4" points="55.14,162.58 54.63,161.92 54.74,162.42 "/>
  <path class="fil6" d="M69.81 160.44c0.49,-0.43 0.32,-0.24 0.47,-0.92l-0.47 0.92z"/>
  <polygon class="fil2" points="11.37,112.44 10.94,111.7 11.02,112.25 "/>
  <polygon class="fil6" points="80.08,164.48 79.22,164.14 79.51,164.46 "/>
  <polygon class="fil7" points="108.1,66.51 107.7,65.72 107.77,66.27 "/>
  <path class="fil4" d="M91.3 42.08c0.51,-0.2 0.39,-0.17 0.55,-0.66l-0.55 0.66z"/>
  <path class="fil6" d="M71.42 47l-0.52 -0.97c0.18,0.6 0.07,0.57 0.52,0.97z"/>
  <polygon class="fil7" points="65.6,112.49 65.01,111.99 65.09,112.32 "/>
  <polygon class="fil6" points="100.99,30.5 101.86,30.25 101.34,30.23 "/>
  <polygon class="fil4" points="77.52,14.81 78.1,14.45 77.63,14.52 "/>
  <path class="fil2" d="M87.64 60.64c0,-0.33 -0.07,-0.23 0.28,-0.25l-0.85 0.08 0.57 0.17z"/>
  <polygon class="fil7" points="27.47,130.5 27.79,130.35 27.63,130.07 "/>
  <polygon class="fil7" points="112.87,65.04 113.3,64.87 113.38,64.58 "/>
  <polygon class="fil7" points="109.51,78.5 109.62,78.29 109.36,77.93 "/>
  <polygon class="fil3" points="70.75,22.88 71.01,22.63 70.9,22.4 "/>
  <path class="fil6" d="M139.92 48.47l0.3 -0.26 -0.1 -0.24c-0.12,0.37 0,0.21 -0.2,0.51z"/>
  <path class="fil4" d="M62.96 66.49c0.24,-0.15 0.17,-0.07 0.41,-0.16l-0.18 -0.13 -0.23 0.3z"/>
  <polygon class="fil6" points="48,82.25 48.27,82.03 48.16,81.84 "/>
  <path class="fil6" d="M73.76 105.75l0.08 -0.23 -0.29 -0.31c0.21,0.32 0.07,0.13 0.21,0.54z"/>
  <polygon class="fil8" points="128.97,32.37 128.63,31.83 "/>
  <polygon class="fil4" points="124.56,34.16 124.15,33.72 "/>
  <polygon class="fil7" points="97.21,34.54 97.55,33.79 "/>
  <polygon class="fil4" points="92.37,34.81 92.14,34.29 "/>
  <polygon class="fil6" points="106.66,35.43 106.3,34.74 "/>
  <polygon class="fil4" points="119.95,35.51 120.22,34.77 "/>
  <polygon class="fil2" points="125.54,36.07 125.29,35.26 "/>
  <polygon class="fil2" points="125.12,38.91 125.47,38.4 "/>
  <polygon class="fil6" points="88.06,39.7 88.46,39.3 "/>
  <polygon class="fil2" points="110.6,39.89 110.92,39.18 "/>
  <polygon class="fil6" points="110.2,40.91 110.6,39.97 "/>
  <polygon class="fil4" points="98.29,41.97 97.88,41.44 "/>
  <polygon class="fil2" points="55.86,71 56.29,70.63 "/>
  <polygon class="fil2" points="94.13,67.61 93.5,67.22 "/>
  <polygon class="fil4" points="102.06,74.33 101.64,73.82 "/>
  <polygon class="fil7" points="103.13,75.58 102.7,75.19 "/>
  <polygon class="fil4" points="103.77,76.62 103.47,76.08 "/>
  <polygon class="fil4" points="49.4,79.39 49.8,78.43 "/>
  <polygon class="fil7" points="107.36,84.61 107.04,83.92 "/>
  <polygon class="fil7" points="111.75,66.15 112.4,65.85 "/>
  <polygon class="fil6" points="50.51,94.92 51.04,94.55 "/>
  <polygon class="fil2" points="50.1,95.46 50.51,94.92 "/>
  <polygon class="fil6" points="89.12,97.28 88.7,96.91 "/>
  <polygon class="fil4" points="80.49,23.21 81.07,22.74 "/>
  <polygon class="fil2" points="89.93,98.3 89.48,97.59 "/>
  <polygon class="fil6" points="94.06,63.06 93.39,62.68 "/>
  <polygon class="fil4" points="89.31,102.97 89.65,102.51 "/>
  <polygon class="fil6" points="116.36,61.34 116.65,60.63 "/>
  <polygon class="fil2" points="64.26,104.45 64.61,103.98 "/>
  <polygon class="fil2" points="131.41,10.27 130.77,9.93 "/>
  <polygon class="fil4" points="75.24,11 75.93,10.65 "/>
  <polygon class="fil4" points="129.01,13.83 128.22,13.59 "/>
  <polygon class="fil7" points="76.38,15.49 76.79,15.11 "/>
  <polygon class="fil2" points="14.52,115.91 13.97,115.48 "/>
  <polygon class="fil6" points="117.34,59.52 117.73,59.07 "/>
  <polygon class="fil2" points="80.61,55.04 79.76,54.69 "/>
  <polygon class="fil4" points="78.77,54.35 77.82,53.95 "/>
  <polygon class="fil6" points="70.62,53.38 70.17,52.84 "/>
  <polygon class="fil6" points="133.83,17.58 133.29,16.93 "/>
  <polygon class="fil7" points="72.86,18.91 73.19,18.33 "/>
  <polygon class="fil4" points="97.17,142.87 96.79,142.3 "/>
  <polygon class="fil2" points="97.52,143.39 97.17,142.87 "/>
  <polygon class="fil2" points="98.78,144.61 98.29,144.02 "/>
  <polygon class="fil4" points="94.28,146.54 93.73,145.88 "/>
  <polygon class="fil6" points="95.97,148.05 95.53,147.66 "/>
  <polygon class="fil8" points="71.9,47.97 71.55,47.55 "/>
  <polygon class="fil4" points="43.72,158.48 43.24,157.89 "/>
  <polygon class="fil6" points="49.53,159.5 50.16,159.11 "/>
  <polygon class="fil4" points="135.13,19.64 134.71,19.03 "/>
  <polygon class="fil4" points="71.08,22.33 71.41,21.52 "/>
  <polygon class="fil4" points="59.26,160.79 58.9,160.33 "/>
  <polygon class="fil2" points="87.36,161.72 87.81,161.09 "/>
  <polygon class="fil2" points="89.68,43.7 90.09,43.26 "/>
  <polygon class="fil2" points="117.02,42.06 116.64,41.6 "/>
  <polygon class="fil6" points="61.41,162.51 60.83,162.15 "/>
  <polygon class="fil7" points="62.08,162.9 61.41,162.51 "/>
  <polygon class="fil4" points="86.24,163.47 86.66,163.02 "/>
  <polygon class="fil4" points="78.06,163.62 77.66,163.23 "/>
  <polygon class="fil2" points="119.52,29.87 120.12,29.46 "/>
  <polygon class="fil7" points="92.21,164.69 91.74,164.28 "/>
  <polygon class="fil6" points="105.23,164.7 105.81,164.29 "/>
  <polygon class="fil6" points="92.73,165.22 92.2,164.76 "/>
  <polygon class="fil4" points="11.93,119.05 11.29,118.67 "/>
 </g>
</svg>
